<?xml version="1.0" encoding="UTF-8"?>
<svg width="75px" height="93px" viewBox="0 0 75 93" version="1.1" xmlns="http://www.w3.org/2000/svg" xmlns:xlink="http://www.w3.org/1999/xlink">
    <!-- Generator: Sketch 63.1 (92452) - https://sketch.com -->
    <title>Group 26</title>
    <desc>Created with Sketch.</desc>
    <defs>
        <path d="M73.8095238,21.8828997 L73.8095238,44.8114423 C73.8141324,49.7067405 72.1318173,54.4599129 69.0330587,58.3114553 L68.9571896,58.4040621 C67.2986247,60.4343375 65.2838049,62.1623547 63.006412,63.5064394 C62.9707865,63.528948 62.9345013,63.5495273 62.8962368,63.5681773 C59.6351843,65.4794787 55.9261742,66.545743 52.1228224,66.6666667 L51.9486533,66.6666667 L51.374687,66.6666667 L22.4243519,66.6666667 C19.0478464,66.6711481 15.7142234,65.9270782 12.6761601,64.4916728 L12.661646,64.4788108 C4.91178082,60.8349906 -0.00981572586,53.1846402 0,44.797294 L0,21.8687514 C-0.00387814289,20.4359185 0.138623848,19.0063011 0.424287562,17.6011215 C0.428905682,17.5528888 0.437482191,17.504013 0.449357357,17.4564234 C1.72000011,11.4607764 5.50421965,6.25550272 10.8876282,3.1023699 C10.9258926,3.08371992 10.9641571,3.05863891 11.0044007,3.03998893 C14.460074,1.04315487 18.4046082,-0.00767503133 22.421713,0 L51.374687,0 C63.7637837,-0.00124400377 73.8081949,9.78742305 73.8095238,21.8648928 L73.8095238,21.8828997 Z" id="path-1"></path>
    </defs>
    <g id="Symbols" stroke="none" stroke-width="1" fill="none" fill-rule="evenodd">
        <g id="startponicodingmobile" transform="translate(-151.000000, 0.000000)">
            <g id="Group-26" transform="translate(151.000000, 0.000000)">
                <g id="Group-27" transform="translate(1.190476, 26.190476)">
                    <mask id="mask-2" fill="white">
                        <use xlink:href="#path-1"></use>
                    </mask>
                    <use id="Fill-1" fill="#3FC93F" xlink:href="#path-1"></use>
                    <g id="Group-18" mask="url(#mask-2)">
                        <g transform="translate(1.190476, 11.904762)">
                            <path d="M41.6666667,54.7619048 L23.6230201,54.7619048 C20.2452812,54.766383 16.9104404,54.0234755 13.8712673,52.5877875 L13.8567479,52.5762197 L3.65555389,42.8740789 C2.03070174,39.7880565 1.18527705,36.3697822 1.19047619,32.9013809 L1.19047619,20.9287451 C1.18659699,19.4981983 1.32849107,18.070222 1.61425913,16.6666667 L41.6666667,54.7619048 Z" id="Fill-5" fill="#FF475A"></path>
                            <path d="M63.0952381,51.6766795 C59.8002231,53.5804517 56.0525851,54.6421586 52.209623,54.7619048 L52.03364,54.7619048 L51.453696,54.7619048 L40.6094103,54.7619048 L0,16.6736523 C1.28320937,10.7036326 5.1081732,5.52124811 10.5469811,2.38095238 L63.0952381,51.6766795 Z" id="Fill-9" fill="#FF9F36"></path>
                            <path d="M72.6190476,37.1395247 C71.9374156,40.4151567 70.459564,43.4915821 68.3053186,46.1194796 L68.2300182,46.2096864 C66.5851962,48.1923552 64.5854803,49.8780935 62.32385,51.1904762 L10.7142857,2.96370158 C14.1433991,1.01736603 18.0583636,-0.00685625035 22.0460093,0 L32.8709286,0 L72.6190476,37.1395247 Z" id="Fill-13" fill="#FFE944"></path>
                        </g>
                    </g>
                </g>
                <polygon id="Fill-92" fill="#FFFFFF" points="23.3306755 77.3703341 22.0317078 92.8571429 10.7142857 88.4713309 2.38095238 77.3703341 2.38095238 57.5972054 3.93298314 36.2741043 11.3021006 30.5056232 12.8548044 20.4320934 18.4511338 15.0556262 23.3306755 17.8475142 27.0599914 21.7579658 44.6680698 1.19047619 49.1020588 4.820641 40.9818284 31.4498148 55.9179371 47.9279602 63.0952381 61.391409 58.8281631 71.4539598 47.5756035 76.293749 31.286011 70.6389326 25.280473 70.2591893"></polygon>
                <path d="M15.5913043,25.5512943 C18.0710142,24.3907863 20.7202992,23.584707 23.4511108,23.1595156 C23.6898203,23.1244419 23.7341708,23.0032223 23.6396,22.7946262 C23.0910898,21.5430497 22.5125777,20.3093177 21.4546899,19.3512524 C20.5122436,18.4990236 19.5697973,18.4633346 18.6495262,19.331562 C16.8585521,21.0052533 16.0811154,23.1361331 15.5828255,25.5512943 L15.5913043,25.5512943 Z M45.2043243,6.23202301 C44.6753934,6.38897431 44.3805144,6.75435695 44.0598501,7.06637614 C42.7474403,8.33893732 41.6241234,9.76279956 40.5219637,11.1985901 C36.3017564,16.7019306 32.4835366,22.4570211 28.7201934,28.246013 C28.4530833,28.6496917 28.1899402,28.9052084 27.6100997,28.8769572 C26.8722411,28.8600065 26.1337214,28.9008138 25.4031356,29.000007 C14.4469935,30.1771418 6.18310969,39.001572 6.2331302,49.4721074 L6.2331302,71.0987415 C6.2300523,72.5006306 6.36162386,73.8987528 6.6260893,75.2767852 C7.85519244,81.6050618 12.6763974,85.9469627 19.1895201,86.6061582 C19.8672127,86.6752168 20.1091986,86.5835572 20.0391153,85.8578144 C19.7283684,82.7181605 19.6807646,79.5596724 19.8943205,76.4124849 C20.0410988,74.5397419 20.2916798,72.6801829 20.9693725,70.8997273 C22.1773184,67.7274275 24.9297424,65.7718142 28.3320903,65.672621 C30.100703,65.6205132 31.7747692,66.0298422 33.4157773,66.6162123 C36.0300181,67.5522698 38.4465711,68.9089569 41.0462664,69.8795438 C43.473398,70.7867223 45.9454887,71.4295949 48.5894819,71.0510283 C51.6195947,70.6172149 54.0493709,69.1048322 56.3389805,67.2578292 C59.5238056,64.6907337 60.4415006,61.5222007 59.468929,57.753486 C58.7509053,54.9767035 57.4642809,52.4366036 55.8715378,50.0365043 C51.0761182,42.8148609 44.8796929,36.7621907 38.2283871,31.0993877 C37.8032589,30.7302382 37.6591253,30.4238693 37.8032589,29.889607 C38.4154964,27.5604497 39.1202968,25.2513821 39.8779903,22.9686823 C41.4839567,18.1289319 43.3061236,13.3563566 44.762667,8.47579886 C44.9881238,7.76010091 45.2155641,7.04251955 45.2043243,6.23202301 L45.2043243,6.23202301 Z M25.9952468,92.8571429 C23.8466453,92.7761188 21.691459,92.9293736 19.544833,92.7698379 C9.39247683,92.0198944 2.06234138,85.5957558 0.410229463,75.9972333 C0.136962646,74.4156943 2.96059473e-14,72.8146844 2.96059473e-14,71.2117902 L2.96059473e-14,49.7259732 C0.00790169111,41.8082286 3.05663751,35.1567201 9.14489051,29.7708197 C9.43593613,29.5252353 9.60648096,29.1741311 9.61438265,28.8029279 C9.85801813,25.4602152 10.4249645,22.1897331 12.0724671,19.1736289 C12.9284836,17.6015113 13.9952119,16.1839046 15.4813883,15.096047 C18.4912741,12.8970922 22.3321545,13.2142793 25.1175006,15.8654613 C26.0242197,16.764891 26.7900252,17.7836584 27.3938461,18.8909869 C28.8128581,16.8358655 30.1429761,14.8561153 31.5244551,12.9190754 C33.9226184,9.53993328 36.3168308,6.15702256 39.2121421,3.13275313 C39.9522672,2.35140501 40.8010405,1.66929565 41.7334401,1.10589592 C43.9669847,-0.223777679 46.276254,-0.421627081 48.5776215,0.881038505 C50.878989,2.18496028 51.7211776,4.2953539 51.5387802,6.77004166 C51.3715278,9.08833417 50.559629,11.2734709 49.8465014,13.4699133 C48.3662513,18.009772 46.6529012,22.4761437 45.2569358,27.0417542 C45.1851621,27.2823139 45.123924,27.5235018 45.0580766,27.7659458 C44.728181,28.3010813 44.8467063,28.6923835 45.3372697,29.1320488 C49.7786785,33.1669204 54.0238621,37.3908481 57.7211951,42.0839616 C60.8193164,46.0202225 63.5855668,50.1310934 65.1237627,54.8845038 C66.1114741,57.940806 66.3926426,61.0498681 65.6525175,64.1928471 C65.165905,66.2467123 64.1294665,68.0568773 62.7861791,69.7144157 C61.6292398,70.9071649 60.3834065,72.0170059 59.0572393,73.0370294 C57.0884013,74.4929498 54.9029252,75.6605753 52.5725848,76.5015923 C52.2196426,76.6240705 52.0168326,76.7032103 51.7080081,76.7999366 C46.6153682,77.9700745 41.8078476,76.9632409 37.1313635,75.0412753 C35.8473387,74.514305 34.6186257,73.868625 33.3662076,73.2713083 C32.5200682,72.886287 32.0973277,72.7788831 30.7942072,72.2462599 C30.6012742,72.1677483 30.403732,72.1005423 30.2022388,72.044642 C28.0384924,71.43916 27.293758,71.950428 26.7715879,74.090342 C26.4937118,75.1260679 26.3330441,76.1875456 26.2935356,77.2559324 C26.1183815,81.9528144 26.3422627,86.6289693 27.2265937,91.2655543 C27.4932757,92.6976071 27.4847156,92.6976071 25.9952468,92.8571429 L25.9952468,92.8571429 Z" id="Fill-19" fill="#0F1245"></path>
                <path d="M34.083258,53.1256785 C34.0813044,52.3620918 33.4431246,51.74389 32.6571215,51.7426258 C31.9186563,51.7426258 31.4185317,52.2603224 31.4269973,53.0017853 C31.4374166,53.7381913 32.042385,54.3367978 32.8010375,54.3620821 C33.5030354,54.3677711 34.0773972,53.8197333 34.083258,53.1376885 L34.083258,53.1256785 Z M35.0392254,46.5252047 C35.00927,44.7293854 33.5251763,43.2761686 31.6757572,43.2319024 C30.0236529,43.2262321 28.6802193,44.5214218 28.6737072,46.1250802 C28.6737072,46.1383545 28.6737072,46.1522609 28.6743584,46.1655352 C28.7075698,47.9613545 30.1916635,49.4133071 32.0417338,49.4588302 C33.6925357,49.4632436 35.0346669,48.1680539 35.0392254,46.5656597 C35.0392254,46.5523854 35.0392254,46.538479 35.0392254,46.5252047 L35.0392254,46.5252047 Z M31.8593967,40.4763747 C35.0138284,40.6630334 38.0035055,42.4177657 40.3061625,45.3488514 C42.1490696,47.6920765 43.1486676,50.3380814 42.7820398,53.3102541 C42.2656351,57.5213589 38.7015961,60.0428384 34.2903409,59.4334861 C28.532396,58.638294 23.6581348,53.0258054 23.8131213,47.3697013 C23.9257796,43.2559412 26.9193639,40.4500129 31.8593967,40.4763747 L31.8593967,40.4763747 Z" id="Fill-22" fill="#0F1245"></path>
                <path d="M52.3445004,58.3336155 C53.6590999,58.3135808 54.7415893,59.3629849 54.7616226,60.678367 C54.7816559,61.9930582 53.7323251,63.0749324 52.4170348,63.0949671 C52.3728233,63.0956579 52.3293027,63.0949671 52.2850913,63.0935854 C50.9711826,63.0396989 49.948793,61.9315724 50.0019849,60.6182629 C50.0531044,59.3553855 51.0817112,58.3522685 52.3445004,58.3336155" id="Fill-24" fill="#0F1245"></path>
            </g>
        </g>
    </g>
</svg>